<svg xmlns="http://www.w3.org/2000/svg" viewBox="0 0 512 512">
  <defs>
    <linearGradient id="pink" x1="0" y1="0" x2="1" y2="1">
      <stop offset="0" stop-color="#ffd0d8"/>
      <stop offset="0.5" stop-color="#e85b83"/>
      <stop offset="1" stop-color="#9b1451"/>
    </linearGradient>
    <linearGradient id="gold" x1="0" y1="0" x2="1" y2="1">
      <stop offset="0" stop-color="#f7c9a7"/>
      <stop offset="1" stop-color="#a95b3a"/>
    </linearGradient>
  </defs>
  <rect x="12" y="12" width="488" height="488" rx="92" fill="#fff8f7" stroke="url(#gold)" stroke-width="12"/>
  <path d="M105 250c25-95 93-151 177-166" fill="none" stroke="url(#gold)" stroke-width="12" stroke-linecap="round"/>
  <path d="M170 300c55-33 98-30 142-3 33 20 67 25 94 5" fill="none" stroke="url(#pink)" stroke-width="13" stroke-linecap="round"/>
  <path d="M184 287c4-58 3-103 21-126 13-16 37-18 52-3 18 18 27 61 48 83 15 16 37 25 68 29 18 2 31 9 38 19-36 22-92 23-131 4-35-17-59-50-78-88-6 25-7 52-4 82z" fill="url(#pink)" stroke="#a94d6e" stroke-width="7" stroke-linejoin="round"/>
  <path d="M330 121c28 20 37 47 30 76-5 20-17 34-35 44 17 3 29-2 39-12 9-9 14-21 16-36 2-19-5-43-18-61" fill="none" stroke="url(#gold)" stroke-width="10" stroke-linecap="round"/>
  <path d="M352 225c16 5 29 2 38-8 5-6 8-12 9-20" fill="none" stroke="url(#gold)" stroke-width="9" stroke-linecap="round"/>
  <circle cx="397" cy="201" r="4.5" fill="#a95b3a"/>
  <path d="M255 346h2" stroke="#9b1451" stroke-width="1"/>
  <text x="256" y="407" text-anchor="middle" font-family="Georgia,serif" font-size="62" font-weight="700" fill="url(#pink)">HS</text>
  <path d="M170 434h172" stroke="url(#gold)" stroke-width="5" stroke-linecap="round"/>
  <path d="M248 453c-10-12-31-4-18 12 10 12 26 21 26 21s16-9 26-21c13-16-8-24-18-12-5-9-11-9-16 0z" fill="#f06a88"/>
</svg>